<svg width="120" height="30" viewBox="0 0 120 30" fill="none" xmlns="http://www.w3.org/2000/svg">
<path d="M3.36471 29.82C2.53805 29.82 1.88471 29.5933 1.40471 29.14C0.951381 28.66 0.724715 27.98 0.724715 27.1V4.02C0.724715 3.14 0.951381 2.47333 1.40471 2.02C1.88471 1.54 2.56471 1.3 3.44471 1.3H17.4047C18.098 1.3 18.618 1.47333 18.9647 1.82C19.3114 2.16667 19.4847 2.66 19.4847 3.3C19.4847 3.96666 19.3114 4.48666 18.9647 4.86C18.618 5.20666 18.098 5.38 17.4047 5.38H5.84471V13.34H16.5647C17.2314 13.34 17.738 13.5133 18.0847 13.86C18.458 14.2067 18.6447 14.7 18.6447 15.34C18.6447 16.0067 18.458 16.5267 18.0847 16.9C17.738 17.2467 17.2314 17.42 16.5647 17.42H5.84471V27.1C5.84471 28.9133 5.01805 29.82 3.36471 29.82ZM30.9225 29.9C28.8959 29.9 27.1359 29.4867 25.6425 28.66C24.1492 27.8333 22.9892 26.66 22.1625 25.14C21.3359 23.5933 20.9225 21.78 20.9225 19.7C20.9225 18.1267 21.1492 16.7267 21.6025 15.5C22.0825 14.2467 22.7625 13.18 23.6425 12.3C24.5225 11.3933 25.5759 10.7133 26.8025 10.26C28.0292 9.78 29.4025 9.54 30.9225 9.54C32.9492 9.54 34.7092 9.95333 36.2025 10.78C37.6959 11.6067 38.8559 12.78 39.6825 14.3C40.5092 15.82 40.9225 17.62 40.9225 19.7C40.9225 21.2733 40.6825 22.6867 40.2025 23.94C39.7492 25.1933 39.0825 26.2733 38.2025 27.18C37.3225 28.06 36.2692 28.74 35.0425 29.22C33.8159 29.6733 32.4425 29.9 30.9225 29.9ZM30.9225 26.1C31.9092 26.1 32.7759 25.86 33.5225 25.38C34.2692 24.9 34.8425 24.1933 35.2425 23.26C35.6692 22.3 35.8825 21.1133 35.8825 19.7C35.8825 17.5667 35.4292 15.98 34.5225 14.94C33.6159 13.8733 32.4159 13.34 30.9225 13.34C29.9359 13.34 29.0692 13.58 28.3225 14.06C27.5759 14.5133 26.9892 15.22 26.5625 16.18C26.1625 17.1133 25.9625 18.2867 25.9625 19.7C25.9625 21.8067 26.4159 23.4067 27.3225 24.5C28.2292 25.5667 29.4292 26.1 30.9225 26.1ZM53.9694 29.9C51.9427 29.9 50.1827 29.4867 48.6894 28.66C47.1961 27.8333 46.0361 26.66 45.2094 25.14C44.3827 23.5933 43.9694 21.78 43.9694 19.7C43.9694 18.1267 44.1961 16.7267 44.6494 15.5C45.1294 14.2467 45.8094 13.18 46.6894 12.3C47.5694 11.3933 48.6227 10.7133 49.8494 10.26C51.0761 9.78 52.4494 9.54 53.9694 9.54C55.9961 9.54 57.7561 9.95333 59.2494 10.78C60.7427 11.6067 61.9027 12.78 62.7294 14.3C63.5561 15.82 63.9694 17.62 63.9694 19.7C63.9694 21.2733 63.7294 22.6867 63.2494 23.94C62.7961 25.1933 62.1294 26.2733 61.2494 27.18C60.3694 28.06 59.3161 28.74 58.0894 29.22C56.8627 29.6733 55.4894 29.9 53.9694 29.9ZM53.9694 26.1C54.9561 26.1 55.8227 25.86 56.5694 25.38C57.3161 24.9 57.8894 24.1933 58.2894 23.26C58.7161 22.3 58.9294 21.1133 58.9294 19.7C58.9294 17.5667 58.4761 15.98 57.5694 14.94C56.6627 13.8733 55.4627 13.34 53.9694 13.34C52.9827 13.34 52.1161 13.58 51.3694 14.06C50.6227 14.5133 50.0361 15.22 49.6094 16.18C49.2094 17.1133 49.0094 18.2867 49.0094 19.7C49.0094 21.8067 49.4627 23.4067 50.3694 24.5C51.2761 25.5667 52.4761 26.1 53.9694 26.1Z" fill="#F03328"/>
<path d="M75.6163 29.9C73.9096 29.9 72.4029 29.4867 71.0963 28.66C69.8163 27.8333 68.8163 26.66 68.0963 25.14C67.3763 23.5933 67.0163 21.78 67.0163 19.7C67.0163 17.5933 67.3763 15.7933 68.0963 14.3C68.8163 12.78 69.8163 11.6067 71.0963 10.78C72.4029 9.95333 73.9096 9.54 75.6163 9.54C77.2429 9.54 78.6563 9.94 79.8563 10.74C81.0829 11.54 81.9096 12.5933 82.3363 13.9H81.8963V3.5C81.8963 2.67333 82.1096 2.04666 82.5363 1.62C82.9629 1.19333 83.5763 0.979998 84.3763 0.979998C85.1763 0.979998 85.7896 1.19333 86.2163 1.62C86.6696 2.04666 86.8963 2.67333 86.8963 3.5V27.26C86.8963 28.0867 86.6829 28.7267 86.2563 29.18C85.8296 29.6067 85.2163 29.82 84.4163 29.82C83.6163 29.82 83.0029 29.6067 82.5763 29.18C82.1496 28.7267 81.9363 28.0867 81.9363 27.26V24.14L82.3763 25.34C81.9763 26.7267 81.1629 27.8333 79.9363 28.66C78.7096 29.4867 77.2696 29.9 75.6163 29.9ZM77.0163 26.1C78.0029 26.1 78.8696 25.86 79.6163 25.38C80.3629 24.9 80.9363 24.1933 81.3363 23.26C81.7629 22.3 81.9763 21.1133 81.9763 19.7C81.9763 17.5667 81.5229 15.98 80.6163 14.94C79.7096 13.8733 78.5096 13.34 77.0163 13.34C76.0296 13.34 75.1629 13.58 74.4163 14.06C73.6696 14.5133 73.0829 15.22 72.6563 16.18C72.2563 17.1133 72.0563 18.2867 72.0563 19.7C72.0563 21.8067 72.5096 23.4067 73.4163 24.5C74.3229 25.5667 75.5229 26.1 77.0163 26.1ZM94.5607 29.78C93.7607 29.78 93.1473 29.54 92.7207 29.06C92.294 28.58 92.0807 27.9133 92.0807 27.06V12.38C92.0807 11.5 92.294 10.8333 92.7207 10.38C93.1473 9.9 93.7607 9.66 94.5607 9.66C95.3607 9.66 95.974 9.9 96.4007 10.38C96.854 10.8333 97.0807 11.5 97.0807 12.38V27.06C97.0807 27.9133 96.8673 28.58 96.4407 29.06C96.014 29.54 95.3873 29.78 94.5607 29.78ZM94.5607 5.94C93.6273 5.94 92.894 5.71333 92.3607 5.26C91.854 4.78 91.6007 4.12667 91.6007 3.3C91.6007 2.44667 91.854 1.79333 92.3607 1.34C92.894 0.886666 93.6273 0.659999 94.5607 0.659999C95.5207 0.659999 96.254 0.886666 96.7607 1.34C97.2673 1.79333 97.5207 2.44667 97.5207 3.3C97.5207 4.12667 97.2673 4.78 96.7607 5.26C96.254 5.71333 95.5207 5.94 94.5607 5.94ZM111.916 29.9C109.703 29.9 107.796 29.4867 106.196 28.66C104.596 27.8333 103.356 26.66 102.476 25.14C101.623 23.62 101.196 21.82 101.196 19.74C101.196 17.7133 101.609 15.94 102.436 14.42C103.289 12.9 104.449 11.7133 105.916 10.86C107.409 9.98 109.103 9.54 110.996 9.54C112.383 9.54 113.623 9.76667 114.716 10.22C115.836 10.6733 116.783 11.3267 117.556 12.18C118.356 13.0333 118.956 14.0733 119.356 15.3C119.783 16.5 119.996 17.86 119.996 19.38C119.996 19.86 119.823 20.2333 119.476 20.5C119.156 20.74 118.689 20.86 118.076 20.86H105.236V17.98H116.476L115.836 18.58C115.836 17.3533 115.649 16.3267 115.276 15.5C114.929 14.6733 114.409 14.0467 113.716 13.62C113.049 13.1667 112.209 12.94 111.196 12.94C110.076 12.94 109.116 13.2067 108.316 13.74C107.543 14.2467 106.943 14.98 106.516 15.94C106.116 16.8733 105.916 17.9933 105.916 19.3V19.58C105.916 21.7667 106.423 23.4067 107.436 24.5C108.476 25.5667 109.996 26.1 111.996 26.1C112.689 26.1 113.463 26.02 114.316 25.86C115.196 25.6733 116.023 25.3667 116.796 24.94C117.356 24.62 117.849 24.4867 118.276 24.54C118.703 24.5667 119.036 24.7133 119.276 24.98C119.543 25.2467 119.703 25.58 119.756 25.98C119.809 26.3533 119.729 26.74 119.516 27.14C119.329 27.54 118.996 27.8867 118.516 28.18C117.583 28.7667 116.503 29.2067 115.276 29.5C114.076 29.7667 112.956 29.9 111.916 29.9Z" fill="#FF9E0C"/>
</svg>
